<?xml version="1.0" encoding="utf-8"?>
<!-- Generator: Adobe Illustrator 17.1.0, SVG Export Plug-In . SVG Version: 6.00 Build 0)  -->
<!DOCTYPE svg PUBLIC "-//W3C//DTD SVG 1.1//EN" "http://www.w3.org/Graphics/SVG/1.1/DTD/svg11.dtd">
<svg version="1.1" id="Layer_1" xmlns="http://www.w3.org/2000/svg" xmlns:xlink="http://www.w3.org/1999/xlink" x="0px" y="0px"
	 viewBox="118 214.5 1200 1200" enable-background="new 118 214.5 1200 1200" xml:space="preserve">
<g id="Square">
	<g>
		<path fill="#80BA27" d="M204.5,1403.7c-41.6,0-75.7-34.1-75.7-75.7V301c0-41.6,34.1-75.7,75.7-75.7h1027
			c41.6,0,75.7,34.1,75.7,75.7v1027c0,41.6-34.1,75.7-75.7,75.7H204.5z"/>
		<path fill="#80BA27" d="M1231.5,236.1c35.7,0,64.9,29.2,64.9,64.9v1027c0,35.7-29.2,64.9-64.9,64.9h-1027
			c-35.7,0-64.9-29.2-64.9-64.9V301c0-35.7,29.2-64.9,64.9-64.9H1231.5 M1231.5,214.5h-1027c-47.6,0-86.5,38.9-86.5,86.5v1027
			c0,47.6,38.9,86.5,86.5,86.5h1027c47.6,0,86.5-38.9,86.5-86.5V301C1318,253.4,1279.1,214.5,1231.5,214.5L1231.5,214.5z"/>
	</g>
</g>
<path fill="#FFFFFF" d="M845.4,834.9c-20.5-14.6-40-36.2-40.5-43.2c0-11.4,0-16.8,28.6-38.9c27.6-21.6,57.3-48.6,57.3-97.3
	c0-31.4-8.6-57.8-25.4-78.4h8.6h4.9l4.3-2.7h0.5c11.4-7.6,16.2-21.6,12.4-34.6c-5.1-13.4-17-22.1-30.5-22.1H733.1
	c-95.7,0-173.5,61.6-173.5,137.8c0,40,15.1,76.2,43.2,102.2c26.5,24.9,62.2,38.4,103.2,40c-0.5,3.8-1.1,8.1-1.1,12.4
	c0,11.4,2.7,22.2,7.6,32.4c-50.3,0.5-97.8,15.7-134.6,43.8s-57.3,65.4-57.3,103.2c0,36.8,22.7,69.7,63.2,91.9
	c36.2,20,85.4,30.8,137.8,30.8c57.3,0,106.5-15.1,142.2-44.3c33-26.5,51.9-63.8,51.9-102.2C915.7,906.8,896.8,871.1,845.4,834.9z
	 M654.1,646.2c-3.8-32.3,2.6-62,18-80c9.7-11,21.3-16.1,34.9-16.1c0.6,0,1.3,0,1.3,0c40.7,1.3,80,49.1,87.8,106.6
	c3.8,33-3.2,63.3-18.8,81.9c-5.7,7.8-17.3,16.1-34.2,16.1c-0.6,0-1.3,0-1.3,0C701.8,753.4,661.8,703.7,654.1,646.2z M861.5,972.2
	c0.1,64.3-47.6,96.2-141.9,96.2c-70.9,0-126.7-43.1-126.7-98.8c0-51.1,65.1-95.5,139.3-95.5h2c16.6,0,31.8,2.7,47.1,7.2l0,0
	c2.6,1.3,5.2,2.8,7.7,4.3c23.9,15,46.8,30,68.5,67.4c2.5,4.4,3.9,9.3,3.9,14.4c0,0,0,0.1,0,0.1C861.5,968.9,861.5,970.2,861.5,972.2
	z"/>
</svg>
