<?xml version="1.0" encoding="utf-8"?>
<!-- Generator: Adobe Illustrator 17.1.0, SVG Export Plug-In . SVG Version: 6.00 Build 0)  -->
<!DOCTYPE svg PUBLIC "-//W3C//DTD SVG 1.1//EN" "http://www.w3.org/Graphics/SVG/1.1/DTD/svg11.dtd">
<svg version="1.1" id="Layer_1" xmlns="http://www.w3.org/2000/svg" xmlns:xlink="http://www.w3.org/1999/xlink" x="0px" y="0px"
	 viewBox="307.3 214.5 1200 1200" enable-background="new 307.3 214.5 1200 1200" xml:space="preserve">
<g id="Square">
	<g>
		<path fill="#F18F00" d="M393.8,1403.7c-41.6,0-75.7-34.1-75.7-75.7V301c0-41.6,34.1-75.7,75.7-75.7h1027
			c41.6,0,75.7,34.1,75.7,75.7v1027c0,41.6-34.1,75.7-75.7,75.7H393.8z"/>
		<path fill="#F18F00" d="M1420.8,236.1c35.7,0,64.9,29.2,64.9,64.9v1027c0,35.7-29.2,64.9-64.9,64.9h-1027
			c-35.7,0-64.9-29.2-64.9-64.9V301c0-35.7,29.2-64.9,64.9-64.9H1420.8 M1420.8,214.5h-1027c-47.6,0-86.5,38.9-86.5,86.5v1027
			c0,47.6,38.9,86.5,86.5,86.5h1027c47.6,0,86.5-38.9,86.5-86.5V301C1507.3,253.4,1468.4,214.5,1420.8,214.5L1420.8,214.5z"/>
	</g>
</g>
<g id="laptop">
	<g>
		<path fill="#FFFFFF" d="M860.3,1114.5c0,0-8.6,0.5-11.4-0.5c-2.2-0.5-8.6-4.9-8.6-4.9L631.6,979.9c0,0-23.8-12.4-29.7-18.4
			c-7.6-8.1-7.6-21.1-7.6-21.1l-1.6-393.5c0,0,0-13.5,8.1-21.6c8.6-8.6,20.5-9.2,20.5-9.2l473.5-1.6c0,0,29.7,0.5,29.7,34.6
			c0,33.5,1.6,342.7,1.6,342.7s-0.5,5.4,0.5,7.6c0.5,1.6,4.3,4.3,4.3,4.3l183.2,120.5c0,0,26.5,17.3,12.4,58.9
			c-10.8,33-45.4,30.8-45.4,30.8L860.3,1114.5z M1044.1,614.5c0-11.4-9.2-20.5-20.5-20.5l-323.8,1.6c-11.4,0-20.5,9.2-20.5,20.5
			l1.1,236.2c0,11.4,9.2,20.5,20.5,20.5l323.8-1.6c11.4,0,20.5-9.2,20.5-20.5L1044.1,614.5z"/>
	</g>
</g>
</svg>
