<?xml version="1.0" encoding="utf-8"?>
<!-- Generator: Adobe Illustrator 17.1.0, SVG Export Plug-In . SVG Version: 6.00 Build 0)  -->
<!DOCTYPE svg PUBLIC "-//W3C//DTD SVG 1.1//EN" "http://www.w3.org/Graphics/SVG/1.1/DTD/svg11.dtd">
<svg version="1.1" id="Layer_1" xmlns="http://www.w3.org/2000/svg" xmlns:xlink="http://www.w3.org/1999/xlink" x="0px" y="0px"
	 viewBox="315.5 214.5 222 222" enable-background="new 315.5 214.5 222 222" xml:space="preserve">
<g id="Square">
	<g>
		<path fill="#E71E6C" d="M331.5,434.5c-7.7,0-14-6.3-14-14v-190c0-7.7,6.3-14,14-14h190c7.7,0,14,6.3,14,14v190c0,7.7-6.3,14-14,14
			H331.5z"/>
		<path fill="#E71E6C" d="M521.5,218.5c6.6,0,12,5.4,12,12v190c0,6.6-5.4,12-12,12h-190c-6.6,0-12-5.4-12-12v-190
			c0-6.6,5.4-12,12-12H521.5 M521.5,214.5h-190c-8.8,0-16,7.2-16,16v190c0,8.8,7.2,16,16,16h190c8.8,0,16-7.2,16-16v-190
			C537.5,221.7,530.4,214.5,521.5,214.5L521.5,214.5z"/>
	</g>
</g>
<g id="lifering">
	<g>
		<g>
			<path fill="#FFFFFF" d="M426.5,378.8c-14.3,0-27.6-5.5-37.7-15.6s-15.6-23.5-15.6-37.7c0-14.3,5.5-27.6,15.6-37.7
				s23.5-15.6,37.7-15.6c14.3,0,27.6,5.5,37.7,15.6s15.6,23.5,15.6,37.7s-5.5,27.6-15.6,37.7C454.2,373.3,440.8,378.8,426.5,378.8
				L426.5,378.8z M428.5,368.3c0,0.1,0,0.2,0,0.2c0,0.4,0,1,1.1,1h0.8c10.4-0.7,19.6-5,27.3-12.8c7.5-7.5,12.1-17.5,12.8-28.1
				c0-0.2-0.1-0.7-0.3-0.9c-0.1-0.1-0.4-0.2-0.7-0.2h-15.1c-0.5,0-0.7,0.1-0.8,0.4c-0.6,6.4-3.4,12.4-7.9,16.9
				c-4.6,4.6-10.6,7.4-17.1,7.9c-0.2,0.1-0.3,0.3-0.3,0.8v0.1v0.1v14.6H428.5z M426.5,307.3c-4.9,0-9.4,1.9-12.9,5.3
				c-3.4,3.4-5.3,8-5.3,12.9s1.9,9.4,5.3,12.9c3.4,3.4,8,5.3,12.9,5.3s9.4-1.9,12.9-5.3c3.4-3.4,5.3-8,5.3-12.9s-1.9-9.4-5.3-12.9
				C436,309.2,431.4,307.3,426.5,307.3z M397.6,323.5c0.3-0.1,0.6-0.1,0.8-0.1c0.6,0,0.7-0.2,0.8-0.4c0.6-6.4,3.4-12.4,7.9-16.9
				c4.2-4.2,9.4-6.8,15.2-7.7c0.5-0.1,0.7-0.1,0.8-0.1c0.2,0,0.5-0.1,0.7-0.1c0.4-0.1,0.6-0.3,0.6-0.9v-0.2l0,0v-14.7
				c0-0.4,0-0.9-0.9-1c-10.7,0.7-20.7,5.2-28.3,12.8c-7.5,7.5-12.4,19.2-12.8,26.3v1.7v0.1c0,0.2,0.1,0.7,0.3,1
				c0.1,0.2,0.5,0.2,0.7,0.2c0.3,0,0.6,0,0.8,0.1L397.6,323.5L397.6,323.5z"/>
			<path fill="#FFFFFF" d="M426.5,274.2c14.2,0,27,5.8,36.3,15c9.3,9.3,15,22.1,15,36.3s-5.8,27-15,36.3c-9.3,9.3-22.1,15-36.3,15
				l0,0l0,0c-14.2,0-27-5.8-36.3-15c-9.3-9.3-15-22.1-15-36.3c0-14.2,5.7-27,15-36.3C399.5,279.9,412.4,274.2,426.5,274.2
				L426.5,274.2L426.5,274.2 M384.1,325.5h13.7c0.2,0,0.4-0.1,0.6-0.1c1.9,0,2.6-1.1,2.8-2c0.5-6.2,3.2-11.7,7.3-15.8
				c3.7-3.7,8.6-6.3,14.1-7.1c-0.2,0-0.3,0.1-0.3,0.1l0.9-0.1c-0.2,0-0.4,0.1-0.6,0.1c0.3,0,0.6-0.1,0.7-0.1c0.3,0,0.5-0.1,0.9-0.1
				c1-0.2,2.3-0.9,2.3-2.9l0,0v-14.9l0,0c0-2.5-2-2.9-2.9-3c-11.6,0.7-22,5.7-29.8,13.4c-7.6,7.6-12.9,19.7-13.4,27.6v1.6
				c0,0-0.2,3.3,3,3.3C383.7,325.4,383.9,325.4,384.1,325.5 M426.5,345.7c5.6,0,10.6-2.3,14.3-5.9c3.7-3.7,5.9-8.7,5.9-14.3
				c0-5.6-2.3-10.6-5.9-14.3c-3.7-3.7-8.7-5.9-14.3-5.9s-10.6,2.3-14.3,5.9c-3.7,3.7-5.9,8.7-5.9,14.3c0,5.6,2.3,10.6,5.9,14.3
				C415.9,343.5,420.9,345.7,426.5,345.7 M429.7,371.5c0.1,0,0.1,0,0.1,0h0.7c11.5-0.8,21-5.7,28.7-13.3
				c7.6-7.7,12.6-17.9,13.4-29.4c0-0.4,0-3.2-2.9-3.2h-15.1c-1.8,0-2.5,1.2-2.7,2.1c-0.5,6.2-3.2,11.8-7.3,15.9
				c-4.2,4.2-9.8,6.9-16.1,7.4c-0.9,0.3-1.9,1-1.9,2.8c0,0.1,0,0.1,0,0.2v14.6c0,0.1,0,0.1,0,0.2C426.5,371.3,429,371.5,429.7,371.5
				 M426.5,270.2L426.5,270.2c-14.8,0-28.7,5.8-39.1,16.2c-10.5,10.4-16.2,24.3-16.2,39.1c0,14.8,5.8,28.7,16.2,39.1
				c10.4,10.4,24.3,16.2,39.1,16.2c14.8,0,28.7-5.8,39.1-16.2c10.5-10.4,16.2-24.3,16.2-39.1c0-14.8-5.8-28.7-16.2-39.1
				C455.2,275.9,441.3,270.2,426.5,270.2L426.5,270.2z M384.5,320.6c0.4-6.7,5.1-17.8,12.2-24.9c7-6.9,16.1-11.2,25.8-12.2v12.9
				c-0.1,0-0.3,0-0.4,0.1c-6.1,0.9-11.9,3.9-16.3,8.3c-4.5,4.5-7.5,10.4-8.3,16.8l0,0h-12.9L384.5,320.6L384.5,320.6z M426.5,341.7
				c-4.3,0-8.4-1.7-11.5-4.8c-3.1-3.1-4.7-7.1-4.8-11.5c0-4.3,1.7-8.4,4.8-11.5c3.1-3.1,7.1-4.8,11.5-4.8c4.3,0,8.4,1.7,11.5,4.8
				c3.1,3.1,4.7,7.1,4.7,11.5c0,4.3-1.7,8.4-4.8,11.5C434.9,340,430.9,341.7,426.5,341.7L426.5,341.7z M455.6,329.5h12.9
				c-0.9,9.7-5.2,18.9-12.2,25.8c-7.3,7.3-16,11.4-25.8,12.2v-12.9c6.3-0.9,12.2-3.8,16.8-8.3C451.9,341.7,454.8,335.8,455.6,329.5
				L455.6,329.5z"/>
		</g>
	</g>
</g>
</svg>
