<?xml version="1.0" encoding="utf-8"?>
<!-- Generator: Adobe Illustrator 17.1.0, SVG Export Plug-In . SVG Version: 6.00 Build 0)  -->
<!DOCTYPE svg PUBLIC "-//W3C//DTD SVG 1.1//EN" "http://www.w3.org/Graphics/SVG/1.1/DTD/svg11.dtd">
<svg version="1.1" id="Layer_1" xmlns="http://www.w3.org/2000/svg" xmlns:xlink="http://www.w3.org/1999/xlink" x="0px" y="0px"
	 viewBox="315.2 214.5 1200 1200" enable-background="new 315.2 214.5 1200 1200" xml:space="preserve">
<g id="Square">
	<g>
		<path fill="#0D93D2" d="M401.7,1403.7c-41.6,0-75.7-34.1-75.7-75.7V301c0-41.6,34.1-75.7,75.7-75.7h1027
			c41.6,0,75.7,34.1,75.7,75.7v1027c0,41.6-34.1,75.7-75.7,75.7H401.7z"/>
		<path fill="#0D93D2" d="M1428.7,236.1c35.7,0,64.9,29.2,64.9,64.9v1027c0,35.7-29.2,64.9-64.9,64.9h-1027
			c-35.7,0-64.9-29.2-64.9-64.9V301c0-35.7,29.2-64.9,64.9-64.9H1428.7 M1428.7,214.5h-1027c-47.6,0-86.5,38.9-86.5,86.5v1027
			c0,47.6,38.9,86.5,86.5,86.5h1027c47.6,0,86.5-38.9,86.5-86.5V301C1515.2,253.4,1476.3,214.5,1428.7,214.5L1428.7,214.5z"/>
	</g>
</g>
<g id="wrench">
	<g>
		<path fill="#FFFFFF" d="M1144.4,1076.7c50.8-42.2,57.3-117.8,15.1-168.1c-21.6-25.9-52.4-40.5-83.8-42.7l-93-101.1
			c5.4-7.6,10.3-15.7,14.6-24.3c27.6-53,29.2-83.2-23.2-140c-52.4-56.8-145.4-82.7-180.5-75.7c-35.1,7-24.9,18.9-24.9,18.9
			s115.1,115.7,110.8,135.1c-4.9,19.5-64.3,66.5-91.9,78.4C760.1,769.1,670.3,628,670.3,628s-9.7-11.4-22.7,21.6
			c-12.4,33.5-1.6,129.2,45.9,190.3c47.6,60.5,77.8,64.3,134.6,44.9c10.3-3.2,20.5-7.6,30.3-12.4l90.8,98.9
			c-3.8,31.4,5.4,63.8,27,89.7C1019,1112.3,1094.1,1118.8,1144.4,1076.7z"/>
	</g>
</g>
</svg>
