<?xml version="1.0" encoding="utf-8"?>
<!-- Generator: Adobe Illustrator 17.1.0, SVG Export Plug-In . SVG Version: 6.00 Build 0)  -->
<!DOCTYPE svg PUBLIC "-//W3C//DTD SVG 1.1//EN" "http://www.w3.org/Graphics/SVG/1.1/DTD/svg11.dtd">
<svg version="1.1" id="Layer_1" xmlns="http://www.w3.org/2000/svg" xmlns:xlink="http://www.w3.org/1999/xlink" x="0px" y="0px"
	 viewBox="317 214.5 1200 1200" enable-background="new 317 214.5 1200 1200" xml:space="preserve">
<g id="Square">
	<g>
		<path fill="#0D93D2" d="M403.5,1403.7c-41.6,0-75.7-34.1-75.7-75.7V301c0-41.6,34.1-75.7,75.7-75.7h1027
			c41.6,0,75.7,34.1,75.7,75.7v1027c0,41.6-34.1,75.7-75.7,75.7H403.5z"/>
		<path fill="#0D93D2" d="M1430.5,236.1c35.7,0,64.9,29.2,64.9,64.9v1027c0,35.7-29.2,64.9-64.9,64.9h-1027
			c-35.7,0-64.9-29.2-64.9-64.9V301c0-35.7,29.2-64.9,64.9-64.9H1430.5 M1430.5,214.5h-1027c-47.6,0-86.5,38.9-86.5,86.5v1027
			c0,47.6,38.9,86.5,86.5,86.5h1027c47.6,0,86.5-38.9,86.5-86.5V301C1517,253.4,1478.1,214.5,1430.5,214.5L1430.5,214.5z"/>
	</g>
</g>
<g id="wiki">
	<g>
		<path fill="#FFFFFF" d="M1307.3,531.8v15.1c-14.6,0-26.5,2.7-35.7,7.6c-9.2,5.4-17.8,14.6-25.9,29.2c-5.4,9.7-14.1,32.4-25.9,68.1
			l-156.2,445.4h-16.8L919.2,743.7l-126.5,353.5h-15.1L611.1,638.3c-12.4-34.1-20-54.6-23.8-60.5c-5.4-10.3-13-17.8-22.7-23.2
			c-9.7-4.9-22.2-7.6-38.4-7.6v-15.1h207.6v15.1H724c-14.6,0-25.9,3.2-33.5,9.7c-7.6,6.5-11.4,14.6-11.4,23.8
			c0,9.7,5.9,31.4,18.4,65.4l110.3,310.3l93-263.8L884,645.9l-13-37.3c-5.9-13.5-12.4-25.4-19.5-35.7c-3.8-5.4-8.1-9.7-13-13
			c-7-4.9-13.5-8.6-20.5-10.8c-5.4-1.6-13.5-2.7-24.9-2.7v-15.1h218.4v15.1h-15.1c-15.7,0-26.5,3.2-34.1,9.7
			c-7,6.5-10.8,15.1-10.8,26.5c0,14.1,5.9,37.8,18.4,72.4l107.6,300.5L1184,651.3c11.9-33.5,18.4-57.3,18.4-70.3
			c0-6.5-2.2-11.9-5.9-17.3c-3.8-5.4-9.2-9.2-15.1-11.4c-10.3-3.8-24.3-5.9-41.1-5.9v-15.1h167V531.8z"/>
	</g>
</g>
</svg>
